<svg xmlns="http://www.w3.org/2000/svg" viewBox="0 0 1200 800">
<defs>
  <radialGradient id="bgGrad" cx="50%" cy="50%" r="75%">
    <stop offset="0%" stop-color="#111827"/><stop offset="100%" stop-color="#0b1120"/>
  </radialGradient>
  <linearGradient id="rGrad" x1="0" y1="0" x2="1" y2="1"><stop offset="0%" stop-color="#818cf8"/><stop offset="100%" stop-color="#6366f1"/></linearGradient>
  <linearGradient id="mGrad" x1="0" y1="0" x2="1" y2="1"><stop offset="0%" stop-color="#22d3ee"/><stop offset="100%" stop-color="#06b6d4"/></linearGradient>
  <linearGradient id="sGrad" x1="0" y1="0" x2="1" y2="1"><stop offset="0%" stop-color="#f59e0b"/><stop offset="100%" stop-color="#d97706"/></linearGradient>
  <linearGradient id="dGrad" x1="0" y1="0" x2="1" y2="1"><stop offset="0%" stop-color="#10b981"/><stop offset="100%" stop-color="#059669"/></linearGradient>
  <linearGradient id="hGrad" x1="0" y1="0" x2="1" y2="1"><stop offset="0%" stop-color="#f472b6"/><stop offset="100%" stop-color="#ec4899"/></linearGradient>
  <filter id="shadow"><feDropShadow dx="0" dy="5" stdDeviation="8" flood-color="#000" flood-opacity=".5"/></filter>
  <marker id="arwR" markerWidth="10" markerHeight="8" refX="9" refY="4" orient="auto"><path d="M0,0 L10,4 L0,8 L2,4Z" fill="#818cf8"/></marker>
  <marker id="arwM" markerWidth="10" markerHeight="8" refX="9" refY="4" orient="auto"><path d="M0,0 L10,4 L0,8 L2,4Z" fill="#22d3ee"/></marker>
  <marker id="arwS" markerWidth="10" markerHeight="8" refX="9" refY="4" orient="auto"><path d="M0,0 L10,4 L0,8 L2,4Z" fill="#f59e0b"/></marker>
  <marker id="arwD" markerWidth="10" markerHeight="8" refX="9" refY="4" orient="auto"><path d="M0,0 L10,4 L0,8 L2,4Z" fill="#10b981"/></marker>
  <marker id="arwH" markerWidth="10" markerHeight="8" refX="9" refY="4" orient="auto"><path d="M0,0 L10,4 L0,8 L2,4Z" fill="#f472b6"/></marker>
  <marker id="arwG" markerWidth="10" markerHeight="8" refX="9" refY="4" orient="auto"><path d="M0,0 L10,4 L0,8 L2,4Z" fill="#475569"/></marker>
</defs>
<rect width="1200" height="800" fill="url(#bgGrad)"/>
<text x="600.0" y="40" text-anchor="middle" fill="#e2e8f0" font-family="system-ui,sans-serif" font-size="24" font-weight="700" letter-spacing="1">SELF-IMPROVEMENT CYCLE</text>
<text x="600.0" y="62" text-anchor="middle" fill="#64748b" font-family="system-ui,sans-serif" font-size="12.5">How the ecosystem recursively improves itself — one full cycle</text>
<line x1="72.0" y1="76" x2="1128.0" y2="76" stroke="#1e293b" stroke-width="1"/>

<circle cx="600" cy="440" r="300" fill="none" stroke="#1e293b" stroke-width="1" stroke-dasharray="5,8" opacity=".4"/>
<circle cx="600" cy="440" r="260" fill="none" stroke="#334155" stroke-width="1" opacity=".3"/>
<circle cx="600" cy="440" r="95" fill="#0f172a" stroke="#10b981" stroke-width="2" filter="url(#shadow)"/>
<text x="600" y="432" text-anchor="middle" fill="#64748b" font-family="system-ui,sans-serif" font-size="26">♻</text>
<text x="600" y="466" text-anchor="middle" fill="#94a3b8" font-family="system-ui,sans-serif" font-size="11">Recursive</text>
<text x="600" y="482" text-anchor="middle" fill="#94a3b8" font-family="system-ui,sans-serif" font-size="11">Improvement</text>
<rect x="490.0" y="77.0" width="220" height="86" rx="10" fill="#0f172a" stroke="#334155" stroke-width="1" filter="url(#shadow)"/>
<rect x="490.0" y="77.0" width="220" height="28" rx="10" fill="#f59e0b" opacity=".16"/>
<rect x="490.0" y="93.0" width="220" height="12" fill="#f59e0b" opacity=".12"/>
<text x="600.0" y="95.5" text-anchor="middle" fill="#f59e0b" font-family="system-ui,sans-serif" font-size="11.5" font-weight="700">✧ SPACE — Ideate</text>
<text x="504.0" y="119.0" fill="#94a3b8" font-family="system-ui,sans-serif" font-size="9.5">RRP session</text>
<text x="504.0" y="135.0" fill="#64748b" font-family="system-ui,sans-serif" font-size="9.5">326 probes → spec</text>
<rect x="810.0" y="397.0" width="220" height="86" rx="10" fill="#0f172a" stroke="#334155" stroke-width="1" filter="url(#shadow)"/>
<rect x="810.0" y="397.0" width="220" height="28" rx="10" fill="#22d3ee" opacity=".16"/>
<rect x="810.0" y="413.0" width="220" height="12" fill="#22d3ee" opacity=".12"/>
<text x="920.0" y="415.5" text-anchor="middle" fill="#22d3ee" font-family="system-ui,sans-serif" font-size="11.5" font-weight="700">🧠 MyKB — Store</text>
<text x="824.0" y="439.0" fill="#94a3b8" font-family="system-ui,sans-serif" font-size="9.5">spec + artifacts</text>
<text x="824.0" y="455.0" fill="#64748b" font-family="system-ui,sans-serif" font-size="9.5">→ wiki pages</text>
<rect x="490.0" y="717.0" width="220" height="86" rx="10" fill="#0f172a" stroke="#334155" stroke-width="1" filter="url(#shadow)"/>
<rect x="490.0" y="717.0" width="220" height="28" rx="10" fill="#818cf8" opacity=".16"/>
<rect x="490.0" y="733.0" width="220" height="12" fill="#818cf8" opacity=".12"/>
<text x="600.0" y="735.5" text-anchor="middle" fill="#818cf8" font-family="system-ui,sans-serif" font-size="11.5" font-weight="700">🔄 RSIS3 — Execute</text>
<text x="504.0" y="759.0" fill="#94a3b8" font-family="system-ui,sans-serif" font-size="9.5">L1 act → L2 improve</text>
<text x="504.0" y="775.0" fill="#64748b" font-family="system-ui,sans-serif" font-size="9.5">→ L3 evolve</text>
<rect x="170.0" y="397.0" width="220" height="86" rx="10" fill="#0f172a" stroke="#334155" stroke-width="1" filter="url(#shadow)"/>
<rect x="170.0" y="397.0" width="220" height="28" rx="10" fill="#10b981" opacity=".16"/>
<rect x="170.0" y="413.0" width="220" height="12" fill="#10b981" opacity=".12"/>
<text x="280.0" y="415.5" text-anchor="middle" fill="#10b981" font-family="system-ui,sans-serif" font-size="11.5" font-weight="700">🗄 Consolidate</text>
<text x="184.0" y="439.0" fill="#94a3b8" font-family="system-ui,sans-serif" font-size="9.5">results → knowledge graph</text>
<text x="184.0" y="455.0" fill="#64748b" font-family="system-ui,sans-serif" font-size="9.5">→ next cycle context</text>
<path d="M 738 187 A 288 288 0 0 1 853 302" fill="none" stroke="120" stroke-width="2.5" opacity=".7" marker-end="url(#arwS)"/>
<path d="M 853 578 A 288 288 0 0 1 738 693" fill="none" stroke="440" stroke-width="2.5" opacity=".7" marker-end="url(#arwM)"/>
<path d="M 462 693 A 288 288 0 0 1 347 578" fill="none" stroke="760" stroke-width="2.5" opacity=".7" marker-end="url(#arwR)"/>
<path d="M 347 302 A 288 288 0 0 1 462 187" fill="none" stroke="440" stroke-width="2.5" opacity=".7" marker-end="url(#arwD)"/>
<rect x="80" y="730" width="1040" height="50" rx="10" fill="#0f172a" stroke="#334155" stroke-width="1" filter="url(#shadow)"/>
<rect x="80" y="730" width="1040" height="26" rx="10" fill="#f472b6" opacity=".16"/>
<rect x="80" y="744" width="1040" height="12" fill="#f472b6" opacity=".12"/>
<text x="600.0" y="747.5" text-anchor="middle" fill="#f472b6" font-family="system-ui,sans-serif" font-size="13" font-weight="700"></text>
<text x="96" y="772" fill="#94a3b8" font-family="system-ui,sans-serif" font-size="10">Cycle duration: seconds (L1) → minutes (L2) → hours/days (L3) — each loop feeds the next</text>
<text x="600.0" y="840" text-anchor="middle" fill="#334155" font-family="system-ui,sans-serif" font-size="9.5">COSMOS — Architecture Diagrams • Generated from source analysis</text>
</svg>