<svg xmlns="http://www.w3.org/2000/svg" viewBox="0 0 1200 860">
<defs>
  <radialGradient id="bgGrad" cx="50%" cy="50%" r="75%">
    <stop offset="0%" stop-color="#111827"/><stop offset="100%" stop-color="#0b1120"/>
  </radialGradient>
  <linearGradient id="rGrad" x1="0" y1="0" x2="1" y2="1"><stop offset="0%" stop-color="#818cf8"/><stop offset="100%" stop-color="#6366f1"/></linearGradient>
  <linearGradient id="mGrad" x1="0" y1="0" x2="1" y2="1"><stop offset="0%" stop-color="#22d3ee"/><stop offset="100%" stop-color="#06b6d4"/></linearGradient>
  <linearGradient id="sGrad" x1="0" y1="0" x2="1" y2="1"><stop offset="0%" stop-color="#f59e0b"/><stop offset="100%" stop-color="#d97706"/></linearGradient>
  <linearGradient id="dGrad" x1="0" y1="0" x2="1" y2="1"><stop offset="0%" stop-color="#10b981"/><stop offset="100%" stop-color="#059669"/></linearGradient>
  <linearGradient id="hGrad" x1="0" y1="0" x2="1" y2="1"><stop offset="0%" stop-color="#f472b6"/><stop offset="100%" stop-color="#ec4899"/></linearGradient>
  <filter id="shadow"><feDropShadow dx="0" dy="5" stdDeviation="8" flood-color="#000" flood-opacity=".5"/></filter>
  <marker id="arwR" markerWidth="10" markerHeight="8" refX="9" refY="4" orient="auto"><path d="M0,0 L10,4 L0,8 L2,4Z" fill="#818cf8"/></marker>
  <marker id="arwM" markerWidth="10" markerHeight="8" refX="9" refY="4" orient="auto"><path d="M0,0 L10,4 L0,8 L2,4Z" fill="#22d3ee"/></marker>
  <marker id="arwS" markerWidth="10" markerHeight="8" refX="9" refY="4" orient="auto"><path d="M0,0 L10,4 L0,8 L2,4Z" fill="#f59e0b"/></marker>
  <marker id="arwD" markerWidth="10" markerHeight="8" refX="9" refY="4" orient="auto"><path d="M0,0 L10,4 L0,8 L2,4Z" fill="#10b981"/></marker>
  <marker id="arwH" markerWidth="10" markerHeight="8" refX="9" refY="4" orient="auto"><path d="M0,0 L10,4 L0,8 L2,4Z" fill="#f472b6"/></marker>
  <marker id="arwG" markerWidth="10" markerHeight="8" refX="9" refY="4" orient="auto"><path d="M0,0 L10,4 L0,8 L2,4Z" fill="#475569"/></marker>
</defs>
<rect width="1200" height="860" fill="url(#bgGrad)"/>
<text x="600.0" y="40" text-anchor="middle" fill="#e2e8f0" font-family="system-ui,sans-serif" font-size="24" font-weight="700" letter-spacing="1">THE COSMOS MIND</text>
<text x="600.0" y="62" text-anchor="middle" fill="#64748b" font-family="system-ui,sans-serif" font-size="12.5">One cognitive system — three faculties mapped to cognitive time</text>
<line x1="72.0" y1="76" x2="1128.0" y2="76" stroke="#1e293b" stroke-width="1"/>

<text x="600" y="96" text-anchor="middle" fill="#64748b" font-family="system-ui,sans-serif" font-size="11" font-style="italic">RSIS3 (reason) · MyKB (memory) · SPACE (imagination) — the whole is one mind</text>
<rect x="400" y="110" width="400" height="118" rx="16" fill="#0f172a" stroke="#818cf8" stroke-width="2" filter="url(#shadow)"/>
<rect x="400" y="110" width="400" height="44" rx="16" fill="#818cf8" opacity=".18"/>
<rect x="400" y="142" width="400" height="12" fill="#818cf8" opacity=".14"/>
<text x="600.0" y="137.0" text-anchor="middle" fill="#818cf8" font-family="system-ui,sans-serif" font-size="16" font-weight="700">🧠 THE COSMOS MIND</text>
<text x="600.0" y="174" text-anchor="middle" fill="#94a3b8" font-family="system-ui,sans-serif" font-size="11.5">RSIS3 + MyKB + SPACE — one cognition</text>
<text x="618" y="270" text-anchor="start" fill="#475569" font-family="system-ui,sans-serif" font-size="9.5" font-style="italic">meta-cognition: it watches itself think</text>
<rect x="80" y="300" width="330" height="250" rx="12" fill="#0f172a" stroke="#22d3ee" stroke-width="1.4" filter="url(#shadow)"/>
<rect x="92" y="312" width="306" height="26" rx="6" fill="#22d3ee" opacity=".16"/>
<text x="245" y="330" text-anchor="middle" fill="#22d3ee" font-family="system-ui,sans-serif" font-size="10" font-weight="700" letter-spacing="2">PAST</text>
<circle cx="122" cy="378" r="17" fill="#22d3ee" opacity=".28"/>
<text x="122" y="384" text-anchor="middle" fill="#e2e8f0" font-size="15">🧠</text>
<text x="152" y="376" fill="#22d3ee" font-family="system-ui,sans-serif" font-size="17" font-weight="700">Memory</text>
<text x="152" y="394" fill="#94a3b8" font-family="system-ui,sans-serif" font-size="10.5" font-style="italic">what was learned</text>
<line x1="94" y1="410" x2="396" y2="410" stroke="#334155" stroke-width="1"/>
<text x="96" y="430" fill="#64748b" font-family="system-ui,sans-serif" font-size="10.5">2,360+ wiki pages · TF-IDF search</text>
<text x="96" y="450" fill="#64748b" font-family="system-ui,sans-serif" font-size="10.5">knowledge graph · temporal snapshots</text>
<text x="96" y="470" fill="#64748b" font-family="system-ui,sans-serif" font-size="10.5">grounds every decision in experience</text>
<text x="96" y="496" fill="#22d3ee" opacity=".8" font-family="system-ui,sans-serif" font-size="9.5" font-style="italic">feeds the present with context</text>
<rect x="435" y="300" width="330" height="250" rx="12" fill="#0f172a" stroke="#818cf8" stroke-width="1.4" filter="url(#shadow)"/>
<rect x="447" y="312" width="306" height="26" rx="6" fill="#818cf8" opacity=".16"/>
<text x="600" y="330" text-anchor="middle" fill="#818cf8" font-family="system-ui,sans-serif" font-size="10" font-weight="700" letter-spacing="2">PRESENT</text>
<circle cx="477" cy="378" r="17" fill="#818cf8" opacity=".28"/>
<text x="477" y="384" text-anchor="middle" fill="#e2e8f0" font-size="15">🔥</text>
<text x="507" y="376" fill="#818cf8" font-family="system-ui,sans-serif" font-size="17" font-weight="700">Reason &amp; Action</text>
<text x="507" y="394" fill="#94a3b8" font-family="system-ui,sans-serif" font-size="10.5" font-style="italic">what to do now</text>
<line x1="449" y1="410" x2="751" y2="410" stroke="#334155" stroke-width="1"/>
<text x="451" y="430" fill="#64748b" font-family="system-ui,sans-serif" font-size="10.5">L1 acts · L2 improves · L3 evolves</text>
<text x="451" y="450" fill="#64748b" font-family="system-ui,sans-serif" font-size="10.5">immutable evaluator gates all changes</text>
<text x="451" y="470" fill="#64748b" font-family="system-ui,sans-serif" font-size="10.5">executes the system's decisions</text>
<text x="451" y="496" fill="#818cf8" opacity=".8" font-family="system-ui,sans-serif" font-size="9.5" font-style="italic">the executive that chooses &amp; acts</text>
<rect x="790" y="300" width="330" height="250" rx="12" fill="#0f172a" stroke="#f59e0b" stroke-width="1.4" filter="url(#shadow)"/>
<rect x="802" y="312" width="306" height="26" rx="6" fill="#f59e0b" opacity=".16"/>
<text x="955" y="330" text-anchor="middle" fill="#f59e0b" font-family="system-ui,sans-serif" font-size="10" font-weight="700" letter-spacing="2">FUTURE</text>
<circle cx="832" cy="378" r="17" fill="#f59e0b" opacity=".28"/>
<text x="832" y="384" text-anchor="middle" fill="#e2e8f0" font-size="15">✧</text>
<text x="862" y="376" fill="#f59e0b" font-family="system-ui,sans-serif" font-size="17" font-weight="700">Imagination</text>
<text x="862" y="394" fill="#94a3b8" font-family="system-ui,sans-serif" font-size="10.5" font-style="italic">what could be</text>
<line x1="804" y1="410" x2="1106" y2="410" stroke="#334155" stroke-width="1"/>
<text x="806" y="430" fill="#64748b" font-family="system-ui,sans-serif" font-size="10.5">326 probes · 7 series · 25 rounds</text>
<text x="806" y="450" fill="#64748b" font-family="system-ui,sans-serif" font-size="10.5">RRP → structured specifications</text>
<text x="806" y="470" fill="#64748b" font-family="system-ui,sans-serif" font-size="10.5">explores options before commitment</text>
<text x="806" y="496" fill="#f59e0b" opacity=".8" font-family="system-ui,sans-serif" font-size="9.5" font-style="italic">challenges memory with new ideas</text>
<path d="M 600 228 C 480 250, 320 280, 215 300" stroke="#22d3ee" stroke-width="2.5" fill="none" opacity="0.85" marker-end="url(#arwM)"/>
<line x1="600" y1="228" x2="600" y2="300" stroke="#818cf8" stroke-width="2.5" opacity="0.85" marker-end="url(#arwR)"/>
<path d="M 600 228 C 720 250, 880 280, 985 300" stroke="#f59e0b" stroke-width="2.5" fill="none" opacity="0.85" marker-end="url(#arwS)"/>
<path d="M 215 300 C 320 280, 480 250, 600 228" stroke="#475569" stroke-width="1.8" fill="none" opacity="0.85" stroke-dasharray="6,4" marker-end="url(#arwG)"/>
<line x1="600" y1="300" x2="600" y2="228" stroke="#475569" stroke-width="1.8" opacity="0.85" stroke-dasharray="6,4" marker-end="url(#arwG)"/>
<path d="M 985 300 C 880 280, 720 250, 600 228" stroke="#475569" stroke-width="1.8" fill="none" opacity="0.85" stroke-dasharray="6,4" marker-end="url(#arwG)"/>
<rect x="80" y="600" width="1040" height="190" rx="10" fill="#0f172a" stroke="#334155" stroke-width="1" filter="url(#shadow)"/>
<rect x="80" y="600" width="1040" height="34" rx="10" fill="#10b981" opacity=".16"/>
<rect x="80" y="622" width="1040" height="12" fill="#10b981" opacity=".12"/>
<text x="600.0" y="621.5" text-anchor="middle" fill="#10b981" font-family="system-ui,sans-serif" font-size="13" font-weight="700">EMERGENT METACOGNITION</text>
<text x="94" y="648" fill="#94a3b8" font-family="system-ui,sans-serif" font-size="11">Memory grounds reasoning — no decision starts from a blank mind</text>
<text x="94" y="674" fill="#94a3b8" font-family="system-ui,sans-serif" font-size="11">Reasoning tests imagination — speculative ideas must pass the evaluator</text>
<text x="94" y="700" fill="#94a3b8" font-family="system-ui,sans-serif" font-size="11">Imagination challenges memory — new probes question old assumptions</text>
<text x="94" y="726" fill="#475569" font-family="system-ui,sans-serif" font-size="10">Each faculty is weak alone; together they form a self-improving mind</text>
<rect x="140" y="742" width="61" height="20" rx="10.0" fill="#22d3ee" opacity=".13"/><text x="170" y="755.5" text-anchor="middle" fill="#22d3ee" font-family="system-ui,sans-serif" font-size="10.5" font-weight="600">grounded</text>
<rect x="248" y="742" width="49" height="20" rx="10.0" fill="#818cf8" opacity=".13"/><text x="272" y="755.5" text-anchor="middle" fill="#818cf8" font-family="system-ui,sans-serif" font-size="10.5" font-weight="600">tested</text>
<rect x="356" y="742" width="73" height="20" rx="10.0" fill="#f59e0b" opacity=".13"/><text x="392" y="755.5" text-anchor="middle" fill="#f59e0b" font-family="system-ui,sans-serif" font-size="10.5" font-weight="600">challenged</text>
<rect x="464" y="742" width="79" height="20" rx="10.0" fill="#10b981" opacity=".13"/><text x="503" y="755.5" text-anchor="middle" fill="#10b981" font-family="system-ui,sans-serif" font-size="10.5" font-weight="600">compounding</text>
<text x="600.0" y="840" text-anchor="middle" fill="#334155" font-family="system-ui,sans-serif" font-size="9.5">COSMOS — Architecture Diagrams • Generated from source analysis</text>
</svg>