<svg xmlns="http://www.w3.org/2000/svg" viewBox="0 0 1600 1000">
<defs>
  <radialGradient id="bgGrad" cx="50%" cy="50%" r="75%">
    <stop offset="0%" stop-color="#111827"/><stop offset="100%" stop-color="#0b1120"/>
  </radialGradient>
  <linearGradient id="rGrad" x1="0" y1="0" x2="1" y2="1"><stop offset="0%" stop-color="#818cf8"/><stop offset="100%" stop-color="#6366f1"/></linearGradient>
  <linearGradient id="mGrad" x1="0" y1="0" x2="1" y2="1"><stop offset="0%" stop-color="#22d3ee"/><stop offset="100%" stop-color="#06b6d4"/></linearGradient>
  <linearGradient id="sGrad" x1="0" y1="0" x2="1" y2="1"><stop offset="0%" stop-color="#f59e0b"/><stop offset="100%" stop-color="#d97706"/></linearGradient>
  <linearGradient id="dGrad" x1="0" y1="0" x2="1" y2="1"><stop offset="0%" stop-color="#10b981"/><stop offset="100%" stop-color="#059669"/></linearGradient>
  <linearGradient id="hGrad" x1="0" y1="0" x2="1" y2="1"><stop offset="0%" stop-color="#f472b6"/><stop offset="100%" stop-color="#ec4899"/></linearGradient>
  <filter id="shadow"><feDropShadow dx="0" dy="5" stdDeviation="8" flood-color="#000" flood-opacity=".5"/></filter>
  <marker id="arwR" markerWidth="10" markerHeight="8" refX="9" refY="4" orient="auto"><path d="M0,0 L10,4 L0,8 L2,4Z" fill="#818cf8"/></marker>
  <marker id="arwM" markerWidth="10" markerHeight="8" refX="9" refY="4" orient="auto"><path d="M0,0 L10,4 L0,8 L2,4Z" fill="#22d3ee"/></marker>
  <marker id="arwS" markerWidth="10" markerHeight="8" refX="9" refY="4" orient="auto"><path d="M0,0 L10,4 L0,8 L2,4Z" fill="#f59e0b"/></marker>
  <marker id="arwD" markerWidth="10" markerHeight="8" refX="9" refY="4" orient="auto"><path d="M0,0 L10,4 L0,8 L2,4Z" fill="#10b981"/></marker>
  <marker id="arwH" markerWidth="10" markerHeight="8" refX="9" refY="4" orient="auto"><path d="M0,0 L10,4 L0,8 L2,4Z" fill="#f472b6"/></marker>
  <marker id="arwG" markerWidth="10" markerHeight="8" refX="9" refY="4" orient="auto"><path d="M0,0 L10,4 L0,8 L2,4Z" fill="#475569"/></marker>
</defs>
<rect width="1600" height="1000" fill="url(#bgGrad)"/>
<text x="800.0" y="40" text-anchor="middle" fill="#e2e8f0" font-family="system-ui,sans-serif" font-size="24" font-weight="700" letter-spacing="1">SPACE — LLM PROVIDER ARCHITECTURE</text>
<text x="800.0" y="62" text-anchor="middle" fill="#64748b" font-family="system-ui,sans-serif" font-size="12.5">Factory pattern: one interface, 7 providers, multiple consumers</text>
<line x1="96.0" y1="76" x2="1504.0" y2="76" stroke="#1e293b" stroke-width="1"/>

<rect x="110" y="130" width="300" height="150" rx="10" fill="#0f172a" stroke="#334155" stroke-width="1" filter="url(#shadow)"/>
<rect x="110" y="130" width="300" height="32" rx="10" fill="#f59e0b" opacity=".16"/>
<rect x="110" y="150" width="300" height="12" fill="#f59e0b" opacity=".12"/>
<text x="260.0" y="150.5" text-anchor="middle" fill="#f59e0b" font-family="system-ui,sans-serif" font-size="13" font-weight="700">SpaceConfig</text>
<text x="124" y="176" fill="#94a3b8" font-family="system-ui,sans-serif" font-size="10">llm.provider = name</text>
<text x="124" y="198" fill="#94a3b8" font-family="system-ui,sans-serif" font-size="10">llm.api_key / model</text>
<text x="124" y="220" fill="#94a3b8" font-family="system-ui,sans-serif" font-size="10">configFromEnv() at startup</text>
<text x="124" y="242" fill="#475569" font-family="system-ui,sans-serif" font-size="9">assertValidConfig() gates</text>
<line x1="410" y1="205" x2="448" y2="205" stroke="#f59e0b" stroke-width="2.5" opacity="0.8" marker-end="url(#arwS)"/>
<rect x="450" y="130" width="300" height="150" rx="10" fill="#0f172a" stroke="#334155" stroke-width="1" filter="url(#shadow)"/>
<rect x="450" y="130" width="300" height="32" rx="10" fill="#f59e0b" opacity=".16"/>
<rect x="450" y="150" width="300" height="12" fill="#f59e0b" opacity=".12"/>
<text x="600.0" y="150.5" text-anchor="middle" fill="#f59e0b" font-family="system-ui,sans-serif" font-size="13" font-weight="700">createProvider(config)</text>
<text x="464" y="176" fill="#94a3b8" font-family="system-ui,sans-serif" font-size="10">factory.ts — switch on</text>
<text x="464" y="198" fill="#94a3b8" font-family="system-ui,sans-serif" font-size="10">config.llm.provider name</text>
<text x="464" y="220" fill="#94a3b8" font-family="system-ui,sans-serif" font-size="10">returns LLMProvider</text>
<text x="464" y="242" fill="#475569" font-family="system-ui,sans-serif" font-size="9">createTemplateProvider()</text>
<line x1="750" y1="205" x2="800" y2="205" stroke="#f59e0b" stroke-width="2.5" opacity="0.8" marker-end="url(#arwS)"/>
<rect x="810" y="130" width="200" height="90" rx="10" fill="#0f172a" stroke="#334155" stroke-width="1" filter="url(#shadow)"/>
<rect x="810" y="130" width="200" height="28" rx="10" fill="#f59e0b" opacity=".16"/>
<rect x="810" y="146" width="200" height="12" fill="#f59e0b" opacity=".12"/>
<text x="910.0" y="148.5" text-anchor="middle" fill="#f59e0b" font-family="system-ui,sans-serif" font-size="10" font-weight="700">openai-provider</text>
<text x="824" y="172" fill="#94a3b8" font-family="system-ui,sans-serif" font-size="9.5">GPT-4o / 4o-mini</text>
<rect x="1030" y="130" width="200" height="90" rx="10" fill="#0f172a" stroke="#334155" stroke-width="1" filter="url(#shadow)"/>
<rect x="1030" y="130" width="200" height="28" rx="10" fill="#f59e0b" opacity=".16"/>
<rect x="1030" y="146" width="200" height="12" fill="#f59e0b" opacity=".12"/>
<text x="1130.0" y="148.5" text-anchor="middle" fill="#f59e0b" font-family="system-ui,sans-serif" font-size="10" font-weight="700">anthropic-provider</text>
<text x="1044" y="172" fill="#94a3b8" font-family="system-ui,sans-serif" font-size="9.5">Claude</text>
<rect x="1250" y="130" width="200" height="90" rx="10" fill="#0f172a" stroke="#334155" stroke-width="1" filter="url(#shadow)"/>
<rect x="1250" y="130" width="200" height="28" rx="10" fill="#f59e0b" opacity=".16"/>
<rect x="1250" y="146" width="200" height="12" fill="#f59e0b" opacity=".12"/>
<text x="1350.0" y="148.5" text-anchor="middle" fill="#f59e0b" font-family="system-ui,sans-serif" font-size="10" font-weight="700">gemini-provider</text>
<text x="1264" y="172" fill="#94a3b8" font-family="system-ui,sans-serif" font-size="9.5">Google Gemini</text>
<rect x="810" y="250" width="200" height="90" rx="10" fill="#0f172a" stroke="#334155" stroke-width="1" filter="url(#shadow)"/>
<rect x="810" y="250" width="200" height="28" rx="10" fill="#f59e0b" opacity=".16"/>
<rect x="810" y="266" width="200" height="12" fill="#f59e0b" opacity=".12"/>
<text x="910.0" y="268.5" text-anchor="middle" fill="#f59e0b" font-family="system-ui,sans-serif" font-size="10" font-weight="700">mistral-provider</text>
<text x="824" y="292" fill="#94a3b8" font-family="system-ui,sans-serif" font-size="9.5">Mistral AI</text>
<rect x="1030" y="250" width="200" height="90" rx="10" fill="#0f172a" stroke="#334155" stroke-width="1" filter="url(#shadow)"/>
<rect x="1030" y="250" width="200" height="28" rx="10" fill="#f59e0b" opacity=".16"/>
<rect x="1030" y="266" width="200" height="12" fill="#f59e0b" opacity=".12"/>
<text x="1130.0" y="268.5" text-anchor="middle" fill="#f59e0b" font-family="system-ui,sans-serif" font-size="10" font-weight="700">ollama-provider</text>
<text x="1044" y="292" fill="#94a3b8" font-family="system-ui,sans-serif" font-size="9.5">Local models</text>
<rect x="1250" y="250" width="200" height="90" rx="10" fill="#0f172a" stroke="#334155" stroke-width="1" filter="url(#shadow)"/>
<rect x="1250" y="250" width="200" height="28" rx="10" fill="#f59e0b" opacity=".16"/>
<rect x="1250" y="266" width="200" height="12" fill="#f59e0b" opacity=".12"/>
<text x="1350.0" y="268.5" text-anchor="middle" fill="#f59e0b" font-family="system-ui,sans-serif" font-size="10" font-weight="700">null-provider</text>
<text x="1264" y="292" fill="#94a3b8" font-family="system-ui,sans-serif" font-size="9.5">No-op (tests)</text>
<rect x="1030" y="370" width="200" height="90" rx="10" fill="#0f172a" stroke="#334155" stroke-width="1" filter="url(#shadow)"/>
<rect x="1030" y="370" width="200" height="28" rx="10" fill="#f59e0b" opacity=".16"/>
<rect x="1030" y="386" width="200" height="12" fill="#f59e0b" opacity=".12"/>
<text x="1130.0" y="388.5" text-anchor="middle" fill="#f59e0b" font-family="system-ui,sans-serif" font-size="10" font-weight="700">template-provider</text>
<text x="1044" y="412" fill="#94a3b8" font-family="system-ui,sans-serif" font-size="9.5">Static templates</text>
<rect x="810" y="500" width="640" height="120" rx="10" fill="#0f172a" stroke="#334155" stroke-width="1" filter="url(#shadow)"/>
<rect x="810" y="500" width="640" height="32" rx="10" fill="#22d3ee" opacity=".16"/>
<rect x="810" y="520" width="640" height="12" fill="#22d3ee" opacity=".12"/>
<text x="1130.0" y="520.5" text-anchor="middle" fill="#22d3ee" font-family="system-ui,sans-serif" font-size="13" font-weight="700">LLMProvider interface</text>
<text x="824" y="546" fill="#94a3b8" font-family="system-ui,sans-serif" font-size="10">complete(params: CompletionParams) → Promise&lt;CompletionResult&gt;</text>
<text x="824" y="568" fill="#94a3b8" font-family="system-ui,sans-serif" font-size="10">CompletionParams: prompt, model?, temperature?, maxTokens?</text>
<text x="824" y="590" fill="#94a3b8" font-family="system-ui,sans-serif" font-size="10">CompletionResult: text, usage?, meta?</text>
<text x="824" y="612" fill="#475569" font-family="system-ui,sans-serif" font-size="9">Every provider implements the same contract — swappable via config</text>
<text x="110" y="500" text-anchor="middle" fill="#10b981" font-family="system-ui,sans-serif" font-size="11">⬇ CONSUMERS</text>
<rect x="110" y="530" width="300" height="90" rx="10" fill="#0f172a" stroke="#334155" stroke-width="1" filter="url(#shadow)"/>
<rect x="110" y="530" width="300" height="28" rx="10" fill="#10b981" opacity=".16"/>
<rect x="110" y="546" width="300" height="12" fill="#10b981" opacity=".12"/>
<text x="260.0" y="548.5" text-anchor="middle" fill="#10b981" font-family="system-ui,sans-serif" font-size="10.5" font-weight="700">question-refiner</text>
<text x="124" y="572" fill="#94a3b8" font-family="system-ui,sans-serif" font-size="9.5">rewrites/refines questions</text>
<rect x="110" y="650" width="300" height="90" rx="10" fill="#0f172a" stroke="#334155" stroke-width="1" filter="url(#shadow)"/>
<rect x="110" y="650" width="300" height="28" rx="10" fill="#10b981" opacity=".16"/>
<rect x="110" y="666" width="300" height="12" fill="#10b981" opacity=".12"/>
<text x="260.0" y="668.5" text-anchor="middle" fill="#10b981" font-family="system-ui,sans-serif" font-size="10.5" font-weight="700">spec-generator</text>
<text x="124" y="692" fill="#94a3b8" font-family="system-ui,sans-serif" font-size="9.5">builds final specification</text>
<rect x="110" y="770" width="300" height="90" rx="10" fill="#0f172a" stroke="#334155" stroke-width="1" filter="url(#shadow)"/>
<rect x="110" y="770" width="300" height="28" rx="10" fill="#10b981" opacity=".16"/>
<rect x="110" y="786" width="300" height="12" fill="#10b981" opacity=".12"/>
<text x="260.0" y="788.5" text-anchor="middle" fill="#10b981" font-family="system-ui,sans-serif" font-size="10.5" font-weight="700">artifact-synthesizer</text>
<text x="124" y="812" fill="#94a3b8" font-family="system-ui,sans-serif" font-size="9.5">summarizes artifacts</text>
<rect x="450" y="530" width="300" height="330" rx="10" fill="#0f172a" stroke="#334155" stroke-width="1" filter="url(#shadow)"/>
<rect x="450" y="530" width="300" height="32" rx="10" fill="#f472b6" opacity=".16"/>
<rect x="450" y="550" width="300" height="12" fill="#f472b6" opacity=".12"/>
<text x="600.0" y="550.5" text-anchor="middle" fill="#f472b6" font-family="system-ui,sans-serif" font-size="13" font-weight="700">quality-scorer</text>
<text x="464" y="576" fill="#94a3b8" font-family="system-ui,sans-serif" font-size="10">grades response quality</text>
<text x="464" y="598" fill="#94a3b8" font-family="system-ui,sans-serif" font-size="10">feeds adaptive-router</text>
<text x="464" y="620" fill="#94a3b8" font-family="system-ui,sans-serif" font-size="10">skip questions when</text>
<text x="464" y="642" fill="#94a3b8" font-family="system-ui,sans-serif" font-size="10">  quality is sufficient</text>
<text x="464" y="664" fill="#94a3b8" font-family="system-ui,sans-serif" font-size="10">→ shouldSkipQuestion()</text>
<text x="464" y="686" fill="#475569" font-family="system-ui,sans-serif" font-size="9">i18n: en, es, fr</text>
<line x1="810" y1="560" x2="780" y2="560" stroke="#22d3ee" stroke-width="2.5" opacity="0.7" marker-end="url(#arwM)"/>
<line x1="810" y1="560" x2="770" y2="560" stroke="#475569" stroke-width="2" opacity="0.3" marker-end="url(#arwG)"/>
<rect x="810" y="680" width="640" height="100" rx="10" fill="#0f172a" stroke="#334155" stroke-width="1" filter="url(#shadow)"/>
<rect x="810" y="680" width="640" height="32" rx="10" fill="#10b981" opacity=".16"/>
<rect x="810" y="700" width="640" height="12" fill="#10b981" opacity=".12"/>
<text x="1130.0" y="700.5" text-anchor="middle" fill="#10b981" font-family="system-ui,sans-serif" font-size="13" font-weight="700">CompletionResult flows to</text>
<text x="824" y="726" fill="#94a3b8" font-family="system-ui,sans-serif" font-size="10">SessionState answers (setAnswer) → artifact tracker</text>
<text x="824" y="748" fill="#94a3b8" font-family="system-ui,sans-serif" font-size="10">Intelligence layer (metrics, completeness, contradictions)</text>
<text x="824" y="770" fill="#475569" font-family="system-ui,sans-serif" font-size="9">Final spec generated by spec-generator → exportSession()</text>
<text x="800.0" y="930" text-anchor="middle" fill="#334155" font-family="system-ui,sans-serif" font-size="9.5">COSMOS — Architecture Diagrams • Generated from source analysis</text>
</svg>